<svg width="359" height="282" viewBox="0 0 359 282" fill="none" xmlns="http://www.w3.org/2000/svg">
<path d="M251 197C206.265 197 170 160.735 170 116C170 71.2649 206.265 35 251 35C295.735 35 332 71.2649 332 116C332 160.735 295.735 197 251 197Z" fill="#FA9E42"/>
<path d="M251 216C195.772 216 151 171.228 151 116C151 60.7715 195.772 16 251 16C306.228 16 351 60.7715 351 116C351 171.228 306.228 216 251 216Z" stroke="#FA9E42" stroke-width="10" stroke-linecap="round" stroke-dasharray="1 66"/>
<g filter="url(#filter0_f_7_1602)">
<path d="M259.6 99.9432C231.315 84.9199 215.315 59.6952 223.863 43.6022C232.41 27.5092 262.269 26.6419 290.554 41.6652C318.838 56.6884 334.838 81.9132 326.291 98.0062C317.743 114.099 287.884 114.966 259.6 99.9432Z" fill="#F8E36F"/>
</g>
<g filter="url(#filter1_b_7_1602)">
<g filter="url(#filter2_d_7_1602)">
<path d="M123.706 269.765C125.64 269.92 127.592 269.999 129.563 270H267.087C276.554 270.035 285.934 268.201 294.69 264.603C303.445 261.005 311.405 255.714 318.111 249.032C324.817 242.351 330.138 234.412 333.769 225.669C337.4 216.927 339.269 207.554 339.269 198.087C339.269 188.621 337.4 179.248 333.769 170.506C330.138 161.763 324.817 153.824 318.111 147.143C311.405 140.461 303.445 135.17 294.69 131.572C285.934 127.974 276.554 126.14 267.087 126.175H215.811C199.187 89.6 160.9 64 116.327 64C56.5004 64 8.0004 110.115 8.0004 167C8.0004 223.885 56.5004 270 116.327 270C118.807 270 121.267 269.922 123.706 269.765Z" fill="url(#paint0_linear_7_1602)"/>
<path d="M123.674 269.266L123.71 269.264L123.746 269.267C125.666 269.421 127.605 269.499 129.564 269.5H267.087H267.089C276.49 269.535 285.805 267.714 294.499 264.141C303.194 260.568 311.098 255.313 317.758 248.678C324.417 242.043 329.702 234.159 333.307 225.478C336.913 216.796 338.769 207.488 338.769 198.087C338.769 188.687 336.913 179.379 333.307 170.697C329.702 162.016 324.417 154.132 317.758 147.497C311.098 140.862 303.194 135.607 294.499 132.034C285.805 128.461 276.49 126.64 267.089 126.675H267.087H215.811H215.489L215.356 126.382C198.815 89.9889 160.708 64.5 116.327 64.5C56.7525 64.5 8.5004 110.415 8.5004 167C8.5004 223.585 56.7525 269.5 116.327 269.5C118.797 269.5 121.246 269.422 123.674 269.266Z" stroke="white" stroke-opacity="0.22"/>
<path d="M116.327 269C109.042 269 101.761 268.302 94.6867 266.926C87.7935 265.585 81.0134 263.584 74.5346 260.978C68.174 258.42 62.0393 255.254 56.301 251.568C50.6178 247.917 45.2738 243.725 40.4174 239.107C35.5618 234.49 31.1538 229.411 27.3157 224.009C23.4417 218.557 20.1144 212.728 17.4264 206.686C14.6892 200.532 12.587 194.093 11.1783 187.547C9.73276 180.831 8.99979 173.917 8.99979 167C8.99979 160.082 9.73276 153.169 11.1783 146.452C12.587 139.906 14.6892 133.467 17.4264 127.314C20.1144 121.272 23.4417 115.443 27.3157 109.991C31.1538 104.589 35.5618 99.5095 40.4173 94.8928C45.2738 90.2752 50.6178 86.0829 56.301 82.4323C62.0393 78.7461 68.174 75.5801 74.5346 73.0221C81.0134 70.4165 87.7935 68.4154 94.6867 67.0742C101.761 65.6979 109.042 65 116.327 65C137.698 65 158.337 70.9523 176.014 82.2135C184.534 87.6418 192.191 94.1939 198.771 101.688C205.392 109.229 210.819 117.607 214.901 126.588L215.168 127.175H215.812H267.087C276.661 127.175 285.948 129.049 294.689 132.747C298.891 134.524 302.944 136.724 306.735 139.285C310.49 141.822 314.021 144.735 317.23 147.945C320.439 151.154 323.353 154.685 325.89 158.44C328.451 162.231 330.651 166.284 332.428 170.485C336.125 179.227 338 188.514 338 198.087C338 207.661 336.125 216.948 332.428 225.689C330.651 229.891 328.451 233.944 325.89 237.735C323.353 241.49 320.439 245.021 317.23 248.23C314.021 251.439 310.49 254.353 306.735 256.89C302.944 259.451 298.891 261.651 294.689 263.428C285.948 267.125 276.661 269 267.087 269H129.563C127.64 269 125.696 268.922 123.786 268.768L123.714 268.762L123.642 268.767C121.222 268.922 118.762 269 116.327 269ZM116.327 270C118.807 270 121.268 269.921 123.706 269.765C125.636 269.92 127.592 270 129.563 270H267.087C306.803 270 339 237.803 339 198.087C339 158.371 306.803 126.175 267.087 126.175H215.812C199.187 89.5954 160.902 64 116.327 64C56.4999 64 7.99979 110.115 7.99979 167C7.99979 223.885 56.4999 270 116.327 270Z" fill="white" fill-opacity="0.09"/>
<path d="M114.955 269.492C108.096 269.41 101.253 268.713 94.5912 267.417C87.6671 266.069 80.8565 264.059 74.3481 261.442C67.9584 258.872 61.7957 255.692 56.0307 251.988C50.3212 248.321 44.9523 244.109 40.0728 239.47C59.2829 257.736 85.7125 269.145 114.955 269.492ZM8.49979 167C8.49979 173.002 9.04279 178.885 10.0847 184.606C9.03226 178.819 8.49979 172.911 8.49979 167ZM14.7331 132.574C13.5906 135.62 12.5955 138.733 11.7558 141.904C12.5908 138.753 13.5855 135.636 14.7331 132.574ZM23.5 114.819C22.2448 116.832 21.06 118.89 19.9489 120.989C21.0573 118.896 22.2424 116.837 23.5 114.819ZM39.0084 95.5569C35.6628 98.8283 32.5451 102.311 29.6795 105.982C32.5402 102.319 35.6635 98.828 39.0084 95.5569ZM116.295 64.5C86.702 64.5083 59.9049 75.8456 40.431 94.1915C45.2146 89.6857 50.4606 85.5896 56.0307 82.0116C61.7957 78.3084 67.9584 75.1279 74.3481 72.5582C80.8565 69.9407 87.6671 67.9306 94.5912 66.5834C101.686 65.2029 108.988 64.5021 116.295 64.5ZM325.72 157.309C320.884 150.368 314.847 144.327 307.909 139.485C311.358 141.892 314.608 144.616 317.584 147.591C320.572 150.579 323.305 153.845 325.72 157.309ZM296.298 132.903C299.672 134.418 302.94 136.203 306.044 138.226C302.953 136.211 299.696 134.428 296.298 132.903ZM326.915 159.08C328.96 162.211 330.762 165.509 332.289 168.914C330.752 165.484 328.952 162.198 326.915 159.08ZM325.328 239.422C323.011 242.68 320.411 245.756 317.584 248.584C314.605 251.562 311.351 254.288 307.899 256.697C314.654 251.984 320.557 246.133 325.328 239.422Z" stroke="white" stroke-opacity="0.03"/>
</g>
</g>
<defs>
<filter id="filter0_f_7_1602" x="191.561" y="0.941406" width="167.031" height="139.726" filterUnits="userSpaceOnUse" color-interpolation-filters="sRGB">
<feFlood flood-opacity="0" result="BackgroundImageFix"/>
<feBlend mode="normal" in="SourceGraphic" in2="BackgroundImageFix" result="shape"/>
<feGaussianBlur stdDeviation="15" result="effect1_foregroundBlur_7_1602"/>
</filter>
<filter id="filter1_b_7_1602" x="-2" y="54" width="351.269" height="226" filterUnits="userSpaceOnUse" color-interpolation-filters="sRGB">
<feFlood flood-opacity="0" result="BackgroundImageFix"/>
<feGaussianBlur in="BackgroundImage" stdDeviation="5"/>
<feComposite in2="SourceAlpha" operator="in" result="effect1_backgroundBlur_7_1602"/>
<feBlend mode="normal" in="SourceGraphic" in2="effect1_backgroundBlur_7_1602" result="shape"/>
</filter>
<filter id="filter2_d_7_1602" x="0" y="56" width="351.269" height="226" filterUnits="userSpaceOnUse" color-interpolation-filters="sRGB">
<feFlood flood-opacity="0" result="BackgroundImageFix"/>
<feColorMatrix in="SourceAlpha" type="matrix" values="0 0 0 0 0 0 0 0 0 0 0 0 0 0 0 0 0 0 127 0" result="hardAlpha"/>
<feOffset dx="2" dy="2"/>
<feGaussianBlur stdDeviation="5"/>
<feColorMatrix type="matrix" values="0 0 0 0 0.501961 0 0 0 0 0.501961 0 0 0 0 0.501961 0 0 0 0.05 0"/>
<feBlend mode="normal" in2="BackgroundImageFix" result="effect1_dropShadow_7_1602"/>
<feBlend mode="normal" in="SourceGraphic" in2="effect1_dropShadow_7_1602" result="shape"/>
</filter>
<linearGradient id="paint0_linear_7_1602" x1="205.105" y1="89.9561" x2="139.063" y2="281.168" gradientUnits="userSpaceOnUse">
<stop stop-color="white" stop-opacity="0.73"/>
<stop offset="1" stop-color="#F7F7F7" stop-opacity="0.63"/>
</linearGradient>
</defs>
</svg>
